<svg width="181" height="152" viewBox="0 0 181 152" fill="none" xmlns="http://www.w3.org/2000/svg">
<path d="M54.4091 149.787L7.35208 122.729C5.2233 121.497 3.57071 119.872 2.39428 117.855C1.21785 115.839 0.629639 113.598 0.629639 111.133L0.629639 57.6895C0.629639 55.2246 1.21785 52.9838 2.39428 50.967C3.57071 48.9503 5.2233 47.3257 7.35208 46.0933L54.4091 19.0355C56.5379 17.803 58.7787 17.1868 61.1316 17.1868C63.4844 17.1868 65.7252 17.803 67.854 19.0355L114.911 46.0933C117.04 47.3257 118.692 48.9503 119.869 50.967C121.045 52.9838 121.634 55.2246 121.634 57.6895V111.133C121.634 113.598 121.045 115.839 119.869 117.855C118.692 119.872 117.04 121.497 114.911 122.729L67.854 149.787C65.7252 151.019 63.4844 151.636 61.1316 151.636C58.7787 151.636 56.5379 151.019 54.4091 149.787ZM54.4091 88.2766V134.325L61.1316 138.191L67.854 134.325V88.2766L108.189 64.9161V57.8575L100.962 53.656L61.1316 76.6804L21.3011 53.656L14.0745 57.8575V64.9161L54.4091 88.2766Z" fill="#6147FF"/>
<path d="M105.044 123.703L102.215 126.532L104.404 128.72L107.072 127.151L105.044 123.703ZM158.88 92.0263L160.909 95.4738L162.88 94.3138V92.0263H158.88ZM137.547 22.1383C137.547 33.9204 147.098 43.4716 158.88 43.4716C170.662 43.4716 180.213 33.9204 180.213 22.1383C180.213 10.3562 170.662 0.804972 158.88 0.804972C147.098 0.804972 137.547 10.3562 137.547 22.1383ZM87.0161 111.332L102.215 126.532L107.872 120.875L92.6729 105.676L87.0161 111.332ZM107.072 127.151L160.909 95.4738L156.852 88.5788L103.015 120.256L107.072 127.151ZM162.88 92.0263V22.1383H154.88V92.0263H162.88Z" fill="#6147FF"/>
</svg>
